<?xml version="1.0" encoding="UTF-8"?>
<svg id="Layer_2" data-name="Layer 2" xmlns="http://www.w3.org/2000/svg" viewBox="0 0 159.2 224.17">
  <defs>
    <style>
      .cls-1 {
        fill: #087ef4;
      }

      .cls-2 {
        fill: #06d9fd;
      }
    </style>
  </defs>
  <g id="Layer_1-2" data-name="Layer 1">
    <g>
      <path class="cls-2" d="M108.52,25.33c0,14-11.35,25.35-25.35,25.35-12.62,0-23.54,7.19-28.91,17.69-2.29,4.43-3.57,9.47-3.57,14.79,0,14-11.35,25.35-25.35,25.35S0,97.16,0,83.16s11.35-25.35,25.35-25.35c5.33,0,10.36-1.28,14.79-3.56,10.5-5.38,17.69-16.3,17.69-28.92,0-14,11.35-25.33,25.35-25.33s25.35,11.34,25.35,25.33Z"/>
      <path class="cls-1" d="M108.52,198.82c0,14-11.35,25.35-25.35,25.35s-25.35-11.35-25.35-25.35c0-17.94-14.54-32.48-32.48-32.48-14,0-25.35-11.35-25.35-25.35s11.35-25.35,25.35-25.35c12.62,0,23.54-7.19,28.92-17.69,2.28-4.43,3.56-9.47,3.56-14.79,0-14,11.35-25.35,25.35-25.35s25.35,11.35,25.35,25.35-11.35,25.35-25.35,25.35c-5.33,0-10.36,1.28-14.79,3.57h-.01c-10.5,5.37-17.68,16.3-17.68,28.91,0,17.94,14.54,32.48,32.48,32.48,14,0,25.35,11.35,25.35,25.35Z"/>
      <circle class="cls-1" cx="83.18" cy="140.99" r="25.35" transform="translate(-73.15 189.55) rotate(-76.72)"/>
      <path class="cls-2" d="M159.2,112.08c0,13.99-11.35,25.33-25.35,25.33s-25.33-11.35-25.33-25.33,11.35-25.35,25.33-25.35,25.35,11.35,25.35,25.35Z"/>
    </g>
  </g>
</svg>