<?xml version="1.0" encoding="UTF-8"?>
<svg id="Layer_2" data-name="Layer 2" xmlns="http://www.w3.org/2000/svg" viewBox="0 0 764.48 224.17">
  <defs>
    <style>
      .cls-1 {
        fill: #fff;
      }
    </style>
  </defs>
  <g id="Layer_1-2" data-name="Layer 1">
    <g>
      <g>
        <path class="cls-1" d="M108.52,25.33c0,14-11.35,25.35-25.35,25.35-12.62,0-23.54,7.19-28.91,17.69-2.29,4.43-3.57,9.47-3.57,14.79,0,14-11.35,25.35-25.35,25.35S0,97.16,0,83.16s11.35-25.35,25.35-25.35c5.33,0,10.36-1.28,14.79-3.56,10.5-5.38,17.69-16.3,17.69-28.92,0-14,11.35-25.33,25.35-25.33s25.35,11.34,25.35,25.33Z"/>
        <path class="cls-1" d="M108.52,198.82c0,14-11.35,25.35-25.35,25.35s-25.35-11.35-25.35-25.35c0-17.94-14.54-32.48-32.48-32.48-14,0-25.35-11.35-25.35-25.35s11.35-25.35,25.35-25.35c12.62,0,23.54-7.19,28.92-17.69,2.28-4.43,3.56-9.47,3.56-14.79,0-14,11.35-25.35,25.35-25.35s25.35,11.35,25.35,25.35-11.35,25.35-25.35,25.35c-5.33,0-10.36,1.28-14.79,3.57h-.01c-10.5,5.37-17.68,16.3-17.68,28.91,0,17.94,14.54,32.48,32.48,32.48,14,0,25.35,11.35,25.35,25.35Z"/>
        <circle class="cls-1" cx="83.18" cy="140.99" r="25.35" transform="translate(-73.15 189.55) rotate(-76.72)"/>
        <path class="cls-1" d="M159.2,112.08c0,13.99-11.35,25.33-25.35,25.33s-25.33-11.35-25.33-25.33,11.35-25.35,25.33-25.35,25.35,11.35,25.35,25.35Z"/>
      </g>
      <g>
        <path class="cls-1" d="M222.55,205.47c-9.91,0-19.4-1.23-28.46-3.68-9.06-2.45-16.38-5.55-21.96-9.31l11.11-25.12c5.35,3.42,11.53,6.24,18.54,8.46,7.01,2.22,13.98,3.33,20.93,3.33,4.79,0,8.57-.4,11.37-1.2,2.79-.8,4.84-1.94,6.15-3.42,1.31-1.48,1.97-3.25,1.97-5.3,0-2.62-1.26-4.7-3.76-6.24-2.51-1.54-5.78-2.85-9.83-3.93-4.05-1.08-8.43-2.11-13.16-3.08-4.73-.97-9.54-2.25-14.44-3.85-4.9-1.59-9.34-3.7-13.33-6.32-3.99-2.62-7.21-6.04-9.66-10.25-2.45-4.21-3.67-9.51-3.67-15.89,0-7.06,1.94-13.5,5.81-19.31,3.87-5.81,9.74-10.48,17.6-14.01,7.86-3.53,17.66-5.3,29.4-5.3,7.86,0,15.58.88,23.16,2.65,7.57,1.77,14.27,4.42,20.08,7.95l-10.26,24.95c-5.7-3.19-11.34-5.52-16.92-7.01-5.58-1.48-11-2.22-16.24-2.22-4.67,0-8.43.51-11.28,1.54-2.85,1.02-4.9,2.34-6.15,3.93-1.26,1.6-1.88,3.31-1.88,5.13,0,2.73,1.25,4.87,3.76,6.41,2.51,1.54,5.75,2.79,9.74,3.76,3.99.97,8.4,1.97,13.24,2.99,4.84,1.02,9.66,2.31,14.44,3.85,4.79,1.54,9.2,3.59,13.25,6.15,4.04,2.56,7.32,5.93,9.83,10.08,2.51,4.16,3.76,9.37,3.76,15.64,0,6.95-1.97,13.36-5.9,19.23-3.93,5.87-9.83,10.57-17.69,14.1-7.86,3.53-17.72,5.3-29.56,5.3Z"/>
        <path class="cls-1" d="M339.45,205.47c-17.66,0-31.42-4.84-41.27-14.53-9.86-9.68-14.78-23.36-14.78-41.02v-66.48h33.84v65.46c0,10.14,1.99,17.43,5.98,21.88,3.99,4.44,9.51,6.67,16.58,6.67s12.56-2.22,16.49-6.67c3.93-4.44,5.9-11.73,5.9-21.88v-65.46h33.5v66.48c0,17.66-4.98,31.33-14.95,41.02-9.97,9.69-23.73,14.53-41.27,14.53Z"/>
        <path class="cls-1" d="M453.78,205.47c-9.91,0-19.4-1.23-28.46-3.68-9.06-2.45-16.38-5.55-21.96-9.31l11.11-25.12c5.35,3.42,11.53,6.24,18.54,8.46,7.01,2.22,13.98,3.33,20.93,3.33,4.79,0,8.57-.4,11.37-1.2,2.79-.8,4.84-1.94,6.15-3.42,1.31-1.48,1.97-3.25,1.97-5.3,0-2.62-1.26-4.7-3.76-6.24-2.51-1.54-5.78-2.85-9.83-3.93-4.05-1.08-8.43-2.11-13.16-3.08-4.73-.97-9.54-2.25-14.44-3.85-4.9-1.59-9.34-3.7-13.33-6.32-3.99-2.62-7.21-6.04-9.66-10.25-2.45-4.21-3.67-9.51-3.67-15.89,0-7.06,1.94-13.5,5.81-19.31,3.87-5.81,9.74-10.48,17.6-14.01,7.86-3.53,17.66-5.3,29.4-5.3,7.86,0,15.58.88,23.16,2.65,7.57,1.77,14.27,4.42,20.08,7.95l-10.26,24.95c-5.7-3.19-11.34-5.52-16.92-7.01-5.58-1.48-11-2.22-16.24-2.22-4.67,0-8.43.51-11.28,1.54-2.85,1.02-4.9,2.34-6.15,3.93-1.26,1.6-1.88,3.31-1.88,5.13,0,2.73,1.25,4.87,3.76,6.41,2.51,1.54,5.75,2.79,9.74,3.76,3.99.97,8.4,1.97,13.24,2.99,4.84,1.02,9.66,2.31,14.44,3.85,4.79,1.54,9.2,3.59,13.25,6.15,4.04,2.56,7.32,5.93,9.83,10.08,2.51,4.16,3.76,9.37,3.76,15.64,0,6.95-1.97,13.36-5.9,19.23-3.93,5.87-9.83,10.57-17.69,14.1-7.86,3.53-17.72,5.3-29.56,5.3Z"/>
      </g>
      <g>
        <path class="cls-1" d="M518.21,203.08v-90.58h15.72v24.44l-2.56-6.49c2.96-5.92,7.52-10.54,13.67-13.84,6.15-3.3,13.33-4.96,21.53-4.96,7.41,0,13.93,1.43,19.57,4.27,5.64,2.85,10.05,7.18,13.25,12.99,3.19,5.81,4.78,13.16,4.78,22.05v52.13h-16.41v-50.25c0-8.77-2.14-15.38-6.41-19.82-4.27-4.44-10.28-6.67-18.03-6.67-5.81,0-10.88,1.14-15.21,3.42-4.33,2.28-7.66,5.64-10,10.08-2.34,4.44-3.5,9.97-3.5,16.58v46.66h-16.41Z"/>
        <path class="cls-1" d="M662.11,204.11c-9.68,0-18.2-1.99-25.55-5.98-7.35-3.99-13.05-9.46-17.09-16.41-4.05-6.95-6.07-14.93-6.07-23.93s1.97-16.98,5.9-23.93c3.93-6.95,9.34-12.39,16.24-16.32,6.89-3.93,14.67-5.9,23.33-5.9s16.52,1.94,23.24,5.81c6.72,3.88,11.99,9.31,15.81,16.32,3.82,7.01,5.72,15.18,5.72,24.52,0,.68-.03,1.48-.08,2.39-.06.91-.14,1.77-.26,2.56h-77.08v-11.79h68.53l-6.67,4.1c.11-5.81-1.08-10.99-3.59-15.55-2.51-4.55-5.95-8.12-10.34-10.68-4.39-2.56-9.48-3.84-15.3-3.84s-10.77,1.28-15.21,3.84c-4.44,2.56-7.92,6.15-10.43,10.77-2.51,4.61-3.76,9.89-3.76,15.81v2.73c0,6.04,1.39,11.42,4.19,16.15,2.79,4.73,6.69,8.4,11.71,11.02,5.01,2.62,10.77,3.93,17.26,3.93,5.36,0,10.23-.91,14.61-2.73,4.38-1.82,8.23-4.56,11.53-8.2l9.06,10.6c-4.1,4.79-9.2,8.43-15.3,10.94-6.09,2.51-12.9,3.76-20.42,3.76Z"/>
        <path class="cls-1" d="M700.56,126v-13.5h57.77v13.5h-57.77ZM744.65,204.11c-9.12,0-16.18-2.45-21.19-7.35-5.01-4.9-7.52-11.9-7.52-21.02v-83.06h16.41v82.38c0,4.9,1.22,8.66,3.67,11.28,2.45,2.62,5.95,3.93,10.51,3.93,5.13,0,9.4-1.42,12.82-4.27l5.13,11.79c-2.51,2.17-5.5,3.76-8.97,4.79-3.48,1.02-7.09,1.54-10.85,1.54Z"/>
      </g>
    </g>
  </g>
</svg>